<?xml version="1.0" encoding="utf-8"?>
<!-- Generator: Adobe Illustrator 22.1.0, SVG Export Plug-In . SVG Version: 6.00 Build 0)  -->
<svg version="1.0" id="Layer_1" xmlns="http://www.w3.org/2000/svg" xmlns:xlink="http://www.w3.org/1999/xlink" x="0px" y="0px"
	 viewBox="0 0 1024 768" style="enable-background:new 0 0 1024 768;" xml:space="preserve">
<style type="text/css">
	.st0{fill:none;stroke:#000000;stroke-width:5;stroke-miterlimit:10;}
</style>
<path class="st0" d="M305.5,223.5l147-19c0,0,6,49,11,93s84,70,96,65s130-113,131-138s38-108,66-27s52,136,42,159s-80,102-94,98
	s-81-8-85-10"/>
<path class="st0" d="M410.5,410.5c0,0-59,50-41,56s127,29,127,29s21-34,15-43s-4-44-11-42s-61-22-61-22l-9,14"/>
</svg>
